<?xml version="1.0" encoding="utf-8"?>
<!-- Generator: Adobe Illustrator 24.1.2, SVG Export Plug-In . SVG Version: 6.00 Build 0)  -->
<svg version="1.1" id="Layer_1" xmlns="http://www.w3.org/2000/svg" xmlns:xlink="http://www.w3.org/1999/xlink" x="0px" y="0px"
	 viewBox="0 0 180 270" style="enable-background:new 0 0 180 270;" xml:space="preserve">
<g>
	<path d="M101.3,229.3c1.5,4.5,3.5,3.7,7.2,0.4C105.4,226.8,102.8,225.4,101.3,229.3z"/>
	<path d="M104.1,195.3c2.7-2.6,3.2-3.3,0-6.6C100.8,192.1,100.8,192.9,104.1,195.3z"/>
	<path d="M110.3,36c-4.9,6.7-12.7-1.7-19,1.8C103.9,42.8,107.8,42.3,110.3,36z"/>
	<path d="M60.5,131.3c0.7,4.1,1.2,7.3,1.7,10.6C67.3,139.1,67.4,134.2,60.5,131.3z"/>
	<path d="M121.9,150.4v24c-4-5.3,3.3-18.1-2.8-26.1c-10.3,2.4-40.4,12.7-16.8-5.3c-7.6,19.6,18.4-15.5-7.7-19.9
		c12.5-12.6-8.8-1.8-13.7-6.4c-1.7,0.3-3.8,3.5-0.6,3.9c7.5-1.9,10.5,5.8,16.5,7.6c-1,0.9-2.3,1.9-2.9,1.6c-4.7-3.9-16,6-16-2.5
		c-11.9-2.8-3.2,12.5-12.1,17.8c8.1,5.5,16.3-0.9,23.9-4.3c-25.5-7.3,3.1-7.8,13.2-7.1c-3.6,9.5-12.5,12.1-20.9,17.1
		c10.8,3.4,6.8,0.5,10.1,9.5c4,1.5,3.6,4.9,4.4,7.8c-9.7,3.4-8.3,21.4,1.7,9.6c-1.7-1.4-3.7-1.3-5.8-0.8c11.4-12.6,9.9,9.9,25.3,1.4
		l-1.1,4.3C124.4,178,127.9,153.9,121.9,150.4z"/>
	<path d="M126.2,99.2c-0.3-2.8-1.9-5-4.4-3.2c-4.1-21.9,2.4-35.8-23-40.7c-17.2-9.9-8.8,18.8,4,13.3c4-2.3,6.2,0.4,9.3,2.1
		c-3.5,2.8-6.4,5.7-10.8,3.4c-2.9,5.2-1.7,6.6,3.8,7.9c-1.7,3.4,4.9,5.2,6.6,7.6c-5.5,1.4-7.2-5.6-18.9,0.9
		c-13.2,8-19.6-10.9-32.2,3.2c-7.5-0.2-2.7,9.7-6.7,13.3c1.7,8.8-0.3,22.5,13.7,17.1c-1.8-3.5-18.2-15.6-7.8-13.4
		c3.9-20.1,11.3,8.6,26.3-15.9c7.1,14.6,7,10.7,21.2,8.7c17.5,2.4-4.3,15.3-0.3,21.6c4.6-4.8,7.1-0.5,10.8,3.7
		C102.4,92.3,134,136.8,126.2,99.2z"/>
	<path d="M93.2,76.6l7.1-1.2C96.6,72.5,95,72.9,93.2,76.6z"/>
</g>
</svg>
