<svg xmlns="http://www.w3.org/2000/svg" width="180" height="270" viewBox="0 0 180 270"><path d="M101.3235,229.2526c1.4624,4.4915,3.504,3.6974,7.2474.4364C105.4416,226.8268,102.8141,225.4219,101.3235,229.2526Z"/><path d="M104.1,195.3235c2.7354-2.6118,3.2027-3.2742-.0282-6.6411C100.7532,192.1012,100.7807,192.8744,104.1,195.3235Z"/><path d="M110.2846,36c-4.9271,6.6642-12.6929-1.6981-18.9569,1.7767C103.9375,42.7508,107.8083,42.2845,110.2846,36Z"/><path d="M60.5492,131.3425c.66,4.0681,1.1884,7.3258,1.7169,10.5835C67.2654,139.0614,67.4452,134.16,60.5492,131.3425Z"/><path d="M121.9477,150.4185V174.41c-3.9573-5.3313,3.3127-18.0818-2.8371-26.15-10.268,2.36-40.4221,12.6891-16.845-5.2894-7.5913,19.5717,18.4024-15.4521-7.7089-19.9122,12.4723-12.5557-8.8053-1.7769-13.7072-6.43-1.6932.3047-3.7591,3.454-.5537,3.9489,7.5446-1.8911,10.5439,5.7666,16.4948,7.5814-1.0117.9179-2.3473,1.9111-2.95,1.5779-4.7029-3.9148-16.0436,5.9506-15.9953-2.5471-11.8988-2.7563-3.2035,12.5356-12.0846,17.7827,8.1422,5.476,16.284-.9323,23.9391-4.29-25.4515-7.322,3.1377-7.8084,13.1782-7.0749-3.6432,9.471-12.459,12.06-20.9005,17.1347,10.8153,3.3522,6.7747.4958,10.14,9.4844,4.0175,1.5067,3.5792,4.9056,4.3832,7.8237-9.6688,3.3714-8.2631,21.3864,1.7036,9.6191-1.7264-1.3891-3.69-1.3334-5.7686-.8252,11.3871-12.588,9.8758,9.8887,25.3249,1.3684l-1.0546,4.3355C124.38,178.0259,127.9211,153.86,121.9477,150.4185Z"/><path d="M126.2468,99.194c-.3237-2.8011-1.8759-4.99-4.4231-3.2445-4.0683-21.88,2.3878-35.8236-22.9594-40.68-17.1931-9.9357-8.8016,18.7613,4.0278,13.2784,3.978-2.2561,6.2131.407,9.2708,2.1-3.5255,2.795-6.3829,5.6726-10.7985,3.4088-2.8616,5.22-1.6937,6.586,3.81,7.8891-1.6647,3.42,4.8929,5.2035,6.6335,7.5666-5.5338,1.39-7.2007-5.5631-18.89.9479-13.2343,8.0381-19.58-10.9051-32.25,3.1812-7.5343-.1731-2.6659,9.71-6.6678,13.3427,1.712,8.8239-.3192,22.5354,13.6864,17.061-1.798-3.5127-18.1742-15.628-7.8158-13.3858,3.9483-20.1282,11.32,8.6272,26.28-15.9464,7.0814,14.5561,7.0048,10.7415,21.1961,8.7476,17.4916,2.4186-4.2882,15.3295-.3272,21.5869,4.6321-4.7861,7.1105-.4971,10.837,3.6581C102.3978,92.31,134.0274,136.785,126.2468,99.194Z"/><path d="M93.15,76.6162l7.0627-1.21C96.6172,72.4586,94.9661,72.8751,93.15,76.6162Z"/></svg>